#!OML:ASF Y:\EmotionMaleHayes\Project 1\Capture day 1\Session 1\Male1.ASF
:FULLY-SPECIFIED
:DEGREES
1367
root 39.9196 17.3769 -1.15142 517.815 97.8502 517.869
lowerback 5.12905 3.16003 -11.6745
upperback 6.36877 4.36621 -4.02563
thorax 3.33986 1.9475 2.17802
lowerneck -22.6259 0.431796 4.90316
upperneck 39.7581 -1.12538 2.38609
head 19.029 1.10344 0.175062
rclavicle 6.36111e-015 -7.95139e-015
rhumerus 29.1228 21.5979 -53.3104
rradius 38.5442
rwrist 2.44497
rhand -3.4809 -27.4556
rfingers 7.12502
rthumb 22.2524 -56.1945
lclavicle 6.36111e-015 -7.95139e-015
lhumerus 33.4637 -21.8119 39.928
lradius 37.6058
lwrist -4.15857
lhand 0.940284 -26.3353
lfingers 7.12502
lthumb 26.4907 1.83294
rfemur -2.69762 -4.10792 10.9265
rtibia 9.59699
rfoot -4.67188 1.89143
rtoes 16.9096
lfemur 6.34076 -2.56765 -18.1606
ltibia 9.87771
lfoot -14.0986 7.7738
ltoes -11.5387
1368
root 39.9849 17.3688 -1.14602 516.325 97.6015 516.557
lowerback 4.95015 3.08844 -11.3961
upperback 6.34263 4.29796 -3.99467
thorax 3.42991 1.91817 2.07317
lowerneck -22.537 0.401773 4.91182
upperneck 39.7344 -1.13376 2.31129
head 18.9881 1.09092 0.134831
rclavicle 0 -5.88403e-014
rhumerus 28.7764 21.3897 -53.7786
rradius 38.5391
rwrist 3.27565
rhand -3.1684 -27.4821
rfingers 7.12502
rthumb 22.5523 -56.1849
lclavicle 0 -5.88403e-014
lhumerus 33.2968 -21.7707 40.1349
lradius 37.53
lwrist -4.42594
lhand 1.18362 -26.4524
lfingers 7.12502
lthumb 26.7236 1.68051
rfemur -2.82621 -4.52115 11.0529
rtibia 9.30175
rfoot -4.2093 2.11973
rtoes 15.8925
lfemur 6.87528 -2.63677 -18.193
ltibia 9.71775
lfoot -14.1619 7.69544
ltoes -11.6731
1369
root 40.0391 17.3586 -1.13374 513.849 97.4981 514.331
lowerback 4.91525 3.07629 -11.0231
upperback 6.35574 4.29061 -3.91792
thorax 3.47487 1.92345 1.95439
lowerneck -22.4482 0.423729 4.9942
upperneck 39.6725 -1.10157 2.25261
head 18.9256 1.1065 0.0975531
rclavicle 3.4191e-014 5.08889e-014
rhumerus 28.6184 21.3379 -53.9235
rradius 38.5506
rwrist 3.34289
rhand -3.30895 -27.5717
rfingers 7.12502
rthumb 22.4174 -56.2909
lclavicle 3.4191e-014 5.08889e-014
lhumerus 33.2656 -21.8021 40.1574
lradius 37.5468
lwrist -4.50441
lhand 1.33995 -26.3997
lfingers 7.12502
lthumb 26.8732 1.71025
rfemur -2.99625 -4.49714 11.485
rtibia 9.3522
rfoot -4.15441 2.1373
rtoes 14.5522
lfemur 7.37428 -2.70539 -17.9178
ltibia 9.68098
lfoot -14.4476 7.48177
ltoes -9.81921
1370
root 40.0792 17.3544 -1.12027 515.57 96.9647 516.249
lowerback 5.01974 3.01446 -11.4348
upperback 6.2963 4.18327 -3.97456
thorax 3.35125 1.86466 2.1144
lowerneck -22.3815 0.424031 5.01307
upperneck 39.628 -1.09744 2.23942
head 18.8803 1.10869 0.0877731
rclavicle -6.36111e-015 7.95139e-014
rhumerus 28.6984 21.5205 -53.7338
rradius 38.5127
rwrist 2.89326
rhand -3.49456 -27.6177
rfingers 7.12502
rthumb 22.2393 -56.3582
lclavicle -6.36111e-015 7.95139e-014
lhumerus 33.2549 -21.8944 40.0803
lradius 37.5103
lwrist -4.38777
lhand 1.38797 -26.4846
lfingers 7.12502
lthumb 26.9191 1.61827
rfemur -3.30574 -4.23402 11.1102
rtibia 9.31215
rfoot -4.25386 1.75789
rtoes 13.7192
lfemur 7.5397 -2.87418 -18.4321
ltibia 9.9136
lfoot -14.7209 7.23015
ltoes -7.85399
1371
root 40.1235 17.346 -1.1012 513.861 96.846 514.77
lowerback 5.2275 3.03408 -11.304
upperback 6.16282 4.15491 -3.88605
thorax 3.09287 1.86638 2.12124
lowerneck -22.3818 0.375107 5.00891
upperneck 39.6685 -1.15511 2.20834
head 18.903 1.08523 0.0626869
rclavicle 1.03368e-014 -5.08889e-014
rhumerus 28.5789 21.6675 -53.6534
rradius 38.4558
rwrist 2.65083
rhand -3.66163 -27.4099
rfingers 7.12502
rthumb 22.0789 -56.1694
lclavicle 1.03368e-014 -5.08889e-014
lhumerus 33.148 -22.0695 40.1126
lradius 37.4608
lwrist -4.34597
lhand 1.32363 -26.4731
lfingers 7.12502
lthumb 26.8576 1.63925
rfemur -3.52173 -3.50306 11.4941
rtibia 9.06003
rfoot -4.23828 1.0791
rtoes 14.3374
lfemur 7.87078 -2.94429 -18.2085
ltibia 10.0199
lfoot -14.7302 7.20648
ltoes -8.3552
1372
root 40.1793 17.3403 -1.08501 517.876 96.385 518.929
lowerback 4.89734 3.01649 -11.8905
upperback 6.23468 4.19143 -3.99131
thorax 3.33464 1.85471 2.34794
lowerneck -22.498 0.360139 5.08036
upperneck 39.5691 -1.19752 2.12089
head 18.8719 1.0616 -0.00365031
rclavicle 7.15625e-015 5.08889e-014
rhumerus 28.6074 21.5734 -53.5753
rradius 38.4627
rwrist 2.43295
rhand -3.84454 -27.2889
rfingers 7.12502
rthumb 21.9032 -56.0691
lclavicle 7.15625e-015 5.08889e-014
lhumerus 33.2114 -22.0318 40.1455
lradius 37.4069
lwrist -4.53341
lhand 0.989337 -26.3639
lfingers 7.12502
lthumb 26.5376 1.79725
rfemur -3.77035 -3.49197 10.8455
rtibia 8.87182
rfoot -3.94372 0.963672
rtoes 14.9432
lfemur 8.11451 -3.03486 -18.9655
ltibia 10.1243
lfoot -14.6673 7.21639
ltoes -9.60124
1373
root 40.2335 17.3298 -1.08468 518.243 95.8758 519.455
lowerback 4.754 2.89544 -11.8811
upperback 6.26003 4.06081 -4.01352
thorax 3.46119 1.78459 2.33394
lowerneck -22.3978 0.371623 5.06556
upperneck 39.3976 -1.191 2.16499
head 18.743 1.06114 0.0169542
rclavicle 1.27222e-014 2.8625e-014
rhumerus 28.6006 21.5431 -53.537
rradius 38.4851
rwrist 2.31603
rhand -3.81867 -27.3265
rfingers 7.12502
rthumb 21.9281 -56.1038
lclavicle 1.27222e-014 2.8625e-014
lhumerus 33.1738 -21.9943 40.251
lradius 37.3601
lwrist -4.60889
lhand 1.15876 -26.2638
lfingers 7.12502
lthumb 26.6998 1.87273
rfemur -3.9474 -4.23968 10.531
rtibia 8.88946
rfoot -3.57119 1.48385
rtoes 14.3955
lfemur 8.41243 -3.19987 -19.4007
ltibia 10.2377
lfoot -14.814 6.98825
ltoes -8.98319
